<mxfile host="65bd71144e">
    <diagram id="xoy94gExAD24E3N4mhZg" name="Page-1">
        <mxGraphModel dx="801" dy="782" grid="1" gridSize="10" guides="1" tooltips="1" connect="1" arrows="1" fold="1" page="1" pageScale="1" pageWidth="850" pageHeight="1100" math="0" shadow="0">
            <root>
                <mxCell id="0"/>
                <mxCell id="1" parent="0"/>
                <mxCell id="4" value="" style="group;rounded=0;" vertex="1" connectable="0" parent="1">
                    <mxGeometry x="365" y="50" width="120" height="170" as="geometry"/>
                </mxCell>
                <mxCell id="5" style="edgeStyle=none;html=1;exitX=0.5;exitY=1;exitDx=0;exitDy=0;entryX=0.5;entryY=0;entryDx=0;entryDy=0;rounded=0;" edge="1" parent="4" source="2" target="3">
                    <mxGeometry relative="1" as="geometry"/>
                </mxCell>
                <mxCell id="2" value="start" style="rounded=0;whiteSpace=wrap;html=1;" vertex="1" parent="4">
                    <mxGeometry width="120" height="60" as="geometry"/>
                </mxCell>
                <mxCell id="3" value="generate a random word" style="rounded=0;whiteSpace=wrap;html=1;container=1;" vertex="1" parent="4">
                    <mxGeometry y="110" width="120" height="60" as="geometry"/>
                </mxCell>
                <mxCell id="6" value="" style="group;rounded=0;" vertex="1" connectable="0" parent="1">
                    <mxGeometry x="365" y="270" width="120" height="170" as="geometry"/>
                </mxCell>
                <mxCell id="7" style="edgeStyle=none;html=1;exitX=0.5;exitY=1;exitDx=0;exitDy=0;entryX=0.5;entryY=0;entryDx=0;entryDy=0;rounded=0;" edge="1" parent="6" source="8" target="9">
                    <mxGeometry relative="1" as="geometry"/>
                </mxCell>
                <mxCell id="8" value="generate as many blanks as letters in the word&amp;nbsp;" style="rounded=0;whiteSpace=wrap;html=1;" vertex="1" parent="6">
                    <mxGeometry width="120" height="60" as="geometry"/>
                </mxCell>
                <mxCell id="9" value="ask the user to guess a letter" style="rounded=0;whiteSpace=wrap;html=1;container=1;" vertex="1" parent="6">
                    <mxGeometry y="110" width="120" height="60" as="geometry"/>
                </mxCell>
                <mxCell id="10" style="edgeStyle=none;html=1;exitX=0.5;exitY=1;exitDx=0;exitDy=0;rounded=0;" edge="1" parent="1" source="3" target="8">
                    <mxGeometry relative="1" as="geometry"/>
                </mxCell>
                <mxCell id="15" style="edgeStyle=orthogonalEdgeStyle;html=1;exitX=1;exitY=0.5;exitDx=0;exitDy=0;entryX=0.5;entryY=0;entryDx=0;entryDy=0;rounded=0;" edge="1" parent="1" source="11" target="14">
                    <mxGeometry relative="1" as="geometry"/>
                </mxCell>
                <mxCell id="16" style="edgeStyle=orthogonalEdgeStyle;html=1;exitX=0;exitY=0.5;exitDx=0;exitDy=0;rounded=0;" edge="1" parent="1" source="11" target="13">
                    <mxGeometry relative="1" as="geometry"/>
                </mxCell>
                <mxCell id="11" value="is the gussed &lt;br&gt;letter in the word?" style="rhombus;whiteSpace=wrap;html=1;rounded=0;" vertex="1" parent="1">
                    <mxGeometry x="346" y="490" width="158" height="80" as="geometry"/>
                </mxCell>
                <mxCell id="12" style="edgeStyle=none;html=1;exitX=0.5;exitY=1;exitDx=0;exitDy=0;rounded=0;" edge="1" parent="1" source="9" target="11">
                    <mxGeometry relative="1" as="geometry"/>
                </mxCell>
                <mxCell id="13" value="replace the blank&lt;br&gt;with the letter" style="rounded=0;whiteSpace=wrap;html=1;" vertex="1" parent="1">
                    <mxGeometry x="245" y="570" width="120" height="60" as="geometry"/>
                </mxCell>
                <mxCell id="14" value="lose a life" style="rounded=0;whiteSpace=wrap;html=1;" vertex="1" parent="1">
                    <mxGeometry x="485" y="570" width="120" height="60" as="geometry"/>
                </mxCell>
            </root>
        </mxGraphModel>
    </diagram>
</mxfile>